<mxfile host="app.diagrams.net" modified="2024-04-19T12:17:27.799Z" agent="Mozilla/5.0 (Windows NT 10.0; Win64; x64) AppleWebKit/537.36 (KHTML, like Gecko) Chrome/123.0.0.0 Safari/537.36" etag="JxtjJYioAirgaWVbdc61" version="24.2.5" type="google">
  <diagram id="C5RBs43oDa-KdzZeNtuy" name="Page-1">
    <mxGraphModel grid="1" page="1" gridSize="10" guides="1" tooltips="1" connect="1" arrows="1" fold="1" pageScale="1" pageWidth="827" pageHeight="1169" math="0" shadow="0">
      <root>
        <mxCell id="WIyWlLk6GJQsqaUBKTNV-0" />
        <mxCell id="WIyWlLk6GJQsqaUBKTNV-1" parent="WIyWlLk6GJQsqaUBKTNV-0" />
        <mxCell id="zkfFHV4jXpPFQw0GAbJ--0" value="Usuarios" style="swimlane;fontStyle=2;align=center;verticalAlign=top;childLayout=stackLayout;horizontal=1;startSize=30;horizontalStack=0;resizeParent=1;resizeLast=0;collapsible=1;marginBottom=0;rounded=0;shadow=0;strokeWidth=1;" vertex="1" parent="WIyWlLk6GJQsqaUBKTNV-1">
          <mxGeometry x="70" y="30" width="330" height="250" as="geometry">
            <mxRectangle x="230" y="140" width="160" height="26" as="alternateBounds" />
          </mxGeometry>
        </mxCell>
        <mxCell id="zkfFHV4jXpPFQw0GAbJ--1" value="+nombre: String, &#xa;+apellidos: String, &#xa;+rol: String, &#xa;+id: Int, &#xa;+mail: String, &#xa;-contrasena: String, &#xa;" style="text;align=left;verticalAlign=top;spacingLeft=4;spacingRight=4;overflow=hidden;rotatable=0;points=[[0,0.5],[1,0.5]];portConstraint=eastwest;" vertex="1" parent="zkfFHV4jXpPFQw0GAbJ--0">
          <mxGeometry y="30" width="330" height="130" as="geometry" />
        </mxCell>
        <mxCell id="zkfFHV4jXpPFQw0GAbJ--5" value="-iniciarSesion(String mail, String contrasena):&#xa;Boolean, &#xa;-cerrarsesion(): void" style="text;align=left;verticalAlign=top;spacingLeft=4;spacingRight=4;overflow=hidden;rotatable=0;points=[[0,0.5],[1,0.5]];portConstraint=eastwest;" vertex="1" parent="zkfFHV4jXpPFQw0GAbJ--0">
          <mxGeometry y="160" width="330" as="geometry" />
        </mxCell>
        <mxCell id="zkfFHV4jXpPFQw0GAbJ--4" value="" style="line;html=1;strokeWidth=1;align=left;verticalAlign=middle;spacingTop=-1;spacingLeft=3;spacingRight=3;rotatable=0;labelPosition=right;points=[];portConstraint=eastwest;" vertex="1" parent="zkfFHV4jXpPFQw0GAbJ--0">
          <mxGeometry y="160" width="330" height="8" as="geometry" />
        </mxCell>
        <mxCell id="zkfFHV4jXpPFQw0GAbJ--12" value="" style="endArrow=block;endSize=10;endFill=0;shadow=0;strokeWidth=1;rounded=0;curved=0;edgeStyle=elbowEdgeStyle;elbow=vertical;entryX=0.5;entryY=0;entryDx=0;entryDy=0;" edge="1" parent="WIyWlLk6GJQsqaUBKTNV-1">
          <mxGeometry width="160" relative="1" as="geometry">
            <mxPoint x="240" y="280" as="sourcePoint" />
            <mxPoint x="110" y="360" as="targetPoint" />
            <Array as="points">
              <mxPoint x="160" y="330" />
            </Array>
          </mxGeometry>
        </mxCell>
        <mxCell id="zkfFHV4jXpPFQw0GAbJ--16" value="" style="endArrow=block;endSize=10;endFill=0;shadow=0;strokeWidth=1;rounded=0;curved=0;edgeStyle=elbowEdgeStyle;elbow=vertical;entryX=0.5;entryY=0;entryDx=0;entryDy=0;" edge="1" parent="WIyWlLk6GJQsqaUBKTNV-1">
          <mxGeometry width="160" relative="1" as="geometry">
            <mxPoint x="250" y="280" as="sourcePoint" />
            <mxPoint x="400" y="360" as="targetPoint" />
            <Array as="points">
              <mxPoint x="320" y="330" />
            </Array>
          </mxGeometry>
        </mxCell>
        <mxCell id="F9NlU1KI9bfKZTOe0GzZ-103" value="&lt;font style=&quot;font-size: 18px;&quot;&gt;Ejercicio 4 - Reserva Salas&amp;nbsp;&lt;/font&gt;&lt;div&gt;&lt;font style=&quot;font-size: 18px;&quot;&gt;Giant Tech&amp;nbsp;&lt;/font&gt;&lt;div&gt;&lt;span style=&quot;font-size: 18px; background-color: initial;&quot;&gt;Mariona Q. - Susanna S. - Jordi G.&lt;/span&gt;&lt;/div&gt;&lt;/div&gt;" style="text;html=1;align=center;verticalAlign=middle;whiteSpace=wrap;rounded=0;" vertex="1" parent="WIyWlLk6GJQsqaUBKTNV-1">
          <mxGeometry x="30" y="-125" width="290" height="50" as="geometry" />
        </mxCell>
        <mxCell id="6bKCteFQpn9_bpGlKNxa-7" value="Sitema" style="swimlane;fontStyle=2;align=center;verticalAlign=top;childLayout=stackLayout;horizontal=1;startSize=30;horizontalStack=0;resizeParent=1;resizeLast=0;collapsible=1;marginBottom=0;rounded=0;shadow=0;strokeWidth=1;" vertex="1" parent="WIyWlLk6GJQsqaUBKTNV-1">
          <mxGeometry x="350" y="-170" width="290" height="140" as="geometry">
            <mxRectangle x="230" y="140" width="160" height="26" as="alternateBounds" />
          </mxGeometry>
        </mxCell>
        <mxCell id="6bKCteFQpn9_bpGlKNxa-27" value="+Id: Int&#xa;&#xa;" style="text;align=left;verticalAlign=top;spacingLeft=4;spacingRight=4;overflow=hidden;rotatable=0;points=[[0,0.5],[1,0.5]];portConstraint=eastwest;" vertex="1" parent="6bKCteFQpn9_bpGlKNxa-7">
          <mxGeometry y="30" width="290" height="50" as="geometry" />
        </mxCell>
        <mxCell id="6bKCteFQpn9_bpGlKNxa-10" value="" style="line;html=1;strokeWidth=1;align=left;verticalAlign=middle;spacingTop=-1;spacingLeft=3;spacingRight=3;rotatable=0;labelPosition=right;points=[];portConstraint=eastwest;" vertex="1" parent="6bKCteFQpn9_bpGlKNxa-7">
          <mxGeometry y="80" width="290" height="8" as="geometry" />
        </mxCell>
        <mxCell id="6bKCteFQpn9_bpGlKNxa-28" value="+enviarRecordatorio(Int telefono, String mail,&#xa;Recordatorios recordatorio): Boolean, &#xa;+crearUsuario(Usuario usuario): void" style="text;align=left;verticalAlign=top;spacingLeft=4;spacingRight=4;overflow=hidden;rotatable=0;points=[[0,0.5],[1,0.5]];portConstraint=eastwest;" vertex="1" parent="6bKCteFQpn9_bpGlKNxa-7">
          <mxGeometry y="88" width="290" height="50" as="geometry" />
        </mxCell>
        <mxCell id="6bKCteFQpn9_bpGlKNxa-26" value="" style="endArrow=diamondThin;endFill=1;endSize=24;html=1;rounded=0;entryX=0.75;entryY=1;entryDx=0;entryDy=0;" edge="1" parent="WIyWlLk6GJQsqaUBKTNV-1">
          <mxGeometry width="160" relative="1" as="geometry">
            <mxPoint x="371" y="30" as="sourcePoint" />
            <mxPoint x="371" y="-30" as="targetPoint" />
            <Array as="points" />
          </mxGeometry>
        </mxCell>
        <mxCell id="Hg_WbvtOmxWVrBJ3jvAF-1" value="Administradores" style="swimlane;fontStyle=2;align=center;verticalAlign=top;childLayout=stackLayout;horizontal=1;startSize=30;horizontalStack=0;resizeParent=1;resizeLast=0;collapsible=1;marginBottom=0;rounded=0;shadow=0;strokeWidth=1;" vertex="1" parent="WIyWlLk6GJQsqaUBKTNV-1">
          <mxGeometry x="240" y="360" width="330" height="130" as="geometry">
            <mxRectangle x="230" y="140" width="160" height="26" as="alternateBounds" />
          </mxGeometry>
        </mxCell>
        <mxCell id="Hg_WbvtOmxWVrBJ3jvAF-3" value="+consultarReportes(Reportes reporte): List&lt;Reportes&gt;,&#xa;+gestionSalas(Salas consultaSala): Salas" style="text;align=left;verticalAlign=top;spacingLeft=4;spacingRight=4;overflow=hidden;rotatable=0;points=[[0,0.5],[1,0.5]];portConstraint=eastwest;" vertex="1" parent="Hg_WbvtOmxWVrBJ3jvAF-1">
          <mxGeometry y="30" width="330" as="geometry" />
        </mxCell>
        <mxCell id="Hg_WbvtOmxWVrBJ3jvAF-4" value="" style="line;html=1;strokeWidth=1;align=left;verticalAlign=middle;spacingTop=-1;spacingLeft=3;spacingRight=3;rotatable=0;labelPosition=right;points=[];portConstraint=eastwest;" vertex="1" parent="Hg_WbvtOmxWVrBJ3jvAF-1">
          <mxGeometry y="30" width="330" height="8" as="geometry" />
        </mxCell>
        <mxCell id="Hg_WbvtOmxWVrBJ3jvAF-5" value="Empleados" style="swimlane;fontStyle=0;align=center;verticalAlign=top;childLayout=stackLayout;horizontal=1;startSize=26;horizontalStack=0;resizeParent=1;resizeLast=0;collapsible=1;marginBottom=0;rounded=0;shadow=0;strokeWidth=1;" vertex="1" parent="WIyWlLk6GJQsqaUBKTNV-1">
          <mxGeometry x="30" y="540" width="180" height="90" as="geometry">
            <mxRectangle x="130" y="380" width="160" height="26" as="alternateBounds" />
          </mxGeometry>
        </mxCell>
        <mxCell id="Hg_WbvtOmxWVrBJ3jvAF-6" value="" style="line;html=1;strokeWidth=1;align=left;verticalAlign=middle;spacingTop=-1;spacingLeft=3;spacingRight=3;rotatable=0;labelPosition=right;points=[];portConstraint=eastwest;" vertex="1" parent="Hg_WbvtOmxWVrBJ3jvAF-5">
          <mxGeometry y="26" width="180" height="8" as="geometry" />
        </mxCell>
        <mxCell id="Hg_WbvtOmxWVrBJ3jvAF-8" value="Clientes_Externos" style="swimlane;fontStyle=0;align=center;verticalAlign=top;childLayout=stackLayout;horizontal=1;startSize=26;horizontalStack=0;resizeParent=1;resizeLast=0;collapsible=1;marginBottom=0;rounded=0;shadow=0;strokeWidth=1;" vertex="1" parent="WIyWlLk6GJQsqaUBKTNV-1">
          <mxGeometry x="260" y="540" width="180" height="90" as="geometry">
            <mxRectangle x="130" y="380" width="160" height="26" as="alternateBounds" />
          </mxGeometry>
        </mxCell>
        <mxCell id="Hg_WbvtOmxWVrBJ3jvAF-9" value="" style="line;html=1;strokeWidth=1;align=left;verticalAlign=middle;spacingTop=-1;spacingLeft=3;spacingRight=3;rotatable=0;labelPosition=right;points=[];portConstraint=eastwest;" vertex="1" parent="Hg_WbvtOmxWVrBJ3jvAF-8">
          <mxGeometry y="26" width="180" height="8" as="geometry" />
        </mxCell>
        <mxCell id="Hg_WbvtOmxWVrBJ3jvAF-11" value="Reserva" style="swimlane;fontStyle=2;align=center;verticalAlign=top;childLayout=stackLayout;horizontal=1;startSize=30;horizontalStack=0;resizeParent=1;resizeLast=0;collapsible=1;marginBottom=0;rounded=0;shadow=0;strokeWidth=1;" vertex="1" parent="WIyWlLk6GJQsqaUBKTNV-1">
          <mxGeometry x="780" y="-220" width="320" height="330" as="geometry">
            <mxRectangle x="230" y="140" width="160" height="26" as="alternateBounds" />
          </mxGeometry>
        </mxCell>
        <mxCell id="Hg_WbvtOmxWVrBJ3jvAF-12" value="+id:Int, &#xa;+fechaReservaInicio: Date, &#xa;+fechaReservaFin: Date, &#xa;+horaInicio: Int, &#xa;+horaFin: Int, &#xa;+sala: Sala, &#xa;+precio: Float, &#xa;+estadoReserva: String, &#xa;+usuario:&#xa;Clientes, &#xa;+codigoReserva: String, " style="text;align=left;verticalAlign=top;spacingLeft=4;spacingRight=4;overflow=hidden;rotatable=0;points=[[0,0.5],[1,0.5]];portConstraint=eastwest;" vertex="1" parent="Hg_WbvtOmxWVrBJ3jvAF-11">
          <mxGeometry y="30" width="320" height="170" as="geometry" />
        </mxCell>
        <mxCell id="Hg_WbvtOmxWVrBJ3jvAF-13" value="+filtrarDispoSalas(Salas&#xa;filtroDispo): List&lt;Salas&gt;, &#xa;+filtrarEquipamiento(Salas filtroEquipam):&#xa;List&lt;Salas&gt;, &#xa;+seleccionarReserva(Reserva infoReserva): Reserva, &#xa;+modificarReserva(Reserva&#xa;modifReserva): Reserva" style="text;align=left;verticalAlign=top;spacingLeft=4;spacingRight=4;overflow=hidden;rotatable=0;points=[[0,0.5],[1,0.5]];portConstraint=eastwest;" vertex="1" parent="Hg_WbvtOmxWVrBJ3jvAF-11">
          <mxGeometry y="200" width="320" as="geometry" />
        </mxCell>
        <mxCell id="Hg_WbvtOmxWVrBJ3jvAF-14" value="" style="line;html=1;strokeWidth=1;align=left;verticalAlign=middle;spacingTop=-1;spacingLeft=3;spacingRight=3;rotatable=0;labelPosition=right;points=[];portConstraint=eastwest;" vertex="1" parent="Hg_WbvtOmxWVrBJ3jvAF-11">
          <mxGeometry y="200" width="320" height="8" as="geometry" />
        </mxCell>
        <mxCell id="Hg_WbvtOmxWVrBJ3jvAF-15" value="Pagos" style="swimlane;fontStyle=2;align=center;verticalAlign=top;childLayout=stackLayout;horizontal=1;startSize=30;horizontalStack=0;resizeParent=1;resizeLast=0;collapsible=1;marginBottom=0;rounded=0;shadow=0;strokeWidth=1;" vertex="1" parent="WIyWlLk6GJQsqaUBKTNV-1">
          <mxGeometry x="780" y="130" width="230" height="150" as="geometry">
            <mxRectangle x="230" y="140" width="160" height="26" as="alternateBounds" />
          </mxGeometry>
        </mxCell>
        <mxCell id="Hg_WbvtOmxWVrBJ3jvAF-16" value="+id: Int, &#xa;+datosPago: String&#xa;" style="text;align=left;verticalAlign=top;spacingLeft=4;spacingRight=4;overflow=hidden;rotatable=0;points=[[0,0.5],[1,0.5]];portConstraint=eastwest;" vertex="1" parent="Hg_WbvtOmxWVrBJ3jvAF-15">
          <mxGeometry y="30" width="230" height="60" as="geometry" />
        </mxCell>
        <mxCell id="Hg_WbvtOmxWVrBJ3jvAF-56" value="+pagarReserva(Pagos pagar): Pagos, &#xa;+cancelarReserva(): void" style="text;align=left;verticalAlign=top;spacingLeft=4;spacingRight=4;overflow=hidden;rotatable=0;points=[[0,0.5],[1,0.5]];portConstraint=eastwest;" vertex="1" parent="Hg_WbvtOmxWVrBJ3jvAF-15">
          <mxGeometry y="90" width="230" as="geometry" />
        </mxCell>
        <mxCell id="Hg_WbvtOmxWVrBJ3jvAF-17" value="+pagarReserva(Pagos pagar): Pagos, &#xa;+cancelarReserva(): void" style="text;align=left;verticalAlign=top;spacingLeft=4;spacingRight=4;overflow=hidden;rotatable=0;points=[[0,0.5],[1,0.5]];portConstraint=eastwest;" vertex="1" parent="Hg_WbvtOmxWVrBJ3jvAF-15">
          <mxGeometry y="90" width="230" as="geometry" />
        </mxCell>
        <mxCell id="Hg_WbvtOmxWVrBJ3jvAF-18" value="" style="line;html=1;strokeWidth=1;align=left;verticalAlign=middle;spacingTop=-1;spacingLeft=3;spacingRight=3;rotatable=0;labelPosition=right;points=[];portConstraint=eastwest;" vertex="1" parent="Hg_WbvtOmxWVrBJ3jvAF-15">
          <mxGeometry y="90" width="230" height="8" as="geometry" />
        </mxCell>
        <mxCell id="Hg_WbvtOmxWVrBJ3jvAF-19" value="Salas" style="swimlane;fontStyle=2;align=center;verticalAlign=top;childLayout=stackLayout;horizontal=1;startSize=30;horizontalStack=0;resizeParent=1;resizeLast=0;collapsible=1;marginBottom=0;rounded=0;shadow=0;strokeWidth=1;" vertex="1" parent="WIyWlLk6GJQsqaUBKTNV-1">
          <mxGeometry x="780" y="350" width="210" height="250" as="geometry">
            <mxRectangle x="230" y="140" width="160" height="26" as="alternateBounds" />
          </mxGeometry>
        </mxCell>
        <mxCell id="Hg_WbvtOmxWVrBJ3jvAF-20" value="+id:&#xa;Int, &#xa;+superficieM2: Float, &#xa;+capacidad: Int, &#xa;+disponibilidad: Boolean, &#xa;+ubicación:&#xa;String, &#xa;+equipamiento: Equipamiento, &#xa;+descripcion: String" style="text;align=left;verticalAlign=top;spacingLeft=4;spacingRight=4;overflow=hidden;rotatable=0;points=[[0,0.5],[1,0.5]];portConstraint=eastwest;" vertex="1" parent="Hg_WbvtOmxWVrBJ3jvAF-19">
          <mxGeometry y="30" width="210" height="140" as="geometry" />
        </mxCell>
        <mxCell id="Hg_WbvtOmxWVrBJ3jvAF-21" value="+crearListaInfoSalas(Salas&#xa;infoSalas): List&lt;Salas&gt;" style="text;align=left;verticalAlign=top;spacingLeft=4;spacingRight=4;overflow=hidden;rotatable=0;points=[[0,0.5],[1,0.5]];portConstraint=eastwest;" vertex="1" parent="Hg_WbvtOmxWVrBJ3jvAF-19">
          <mxGeometry y="170" width="210" as="geometry" />
        </mxCell>
        <mxCell id="Hg_WbvtOmxWVrBJ3jvAF-22" value="" style="line;html=1;strokeWidth=1;align=left;verticalAlign=middle;spacingTop=-1;spacingLeft=3;spacingRight=3;rotatable=0;labelPosition=right;points=[];portConstraint=eastwest;" vertex="1" parent="Hg_WbvtOmxWVrBJ3jvAF-19">
          <mxGeometry y="170" width="210" height="8" as="geometry" />
        </mxCell>
        <mxCell id="Hg_WbvtOmxWVrBJ3jvAF-23" value="Equipamiento" style="swimlane;fontStyle=2;align=center;verticalAlign=top;childLayout=stackLayout;horizontal=1;startSize=30;horizontalStack=0;resizeParent=1;resizeLast=0;collapsible=1;marginBottom=0;rounded=0;shadow=0;strokeWidth=1;" vertex="1" parent="WIyWlLk6GJQsqaUBKTNV-1">
          <mxGeometry x="780" y="640" width="210" height="120" as="geometry">
            <mxRectangle x="230" y="140" width="160" height="26" as="alternateBounds" />
          </mxGeometry>
        </mxCell>
        <mxCell id="Hg_WbvtOmxWVrBJ3jvAF-24" value="+id: Int, &#xa;+proyector: Boolean, &#xa;+sistVideo: Boolean&#xa;" style="text;align=left;verticalAlign=top;spacingLeft=4;spacingRight=4;overflow=hidden;rotatable=0;points=[[0,0.5],[1,0.5]];portConstraint=eastwest;" vertex="1" parent="Hg_WbvtOmxWVrBJ3jvAF-23">
          <mxGeometry y="30" width="210" height="60" as="geometry" />
        </mxCell>
        <mxCell id="Hg_WbvtOmxWVrBJ3jvAF-26" value="" style="line;html=1;strokeWidth=1;align=left;verticalAlign=middle;spacingTop=-1;spacingLeft=3;spacingRight=3;rotatable=0;labelPosition=right;points=[];portConstraint=eastwest;" vertex="1" parent="Hg_WbvtOmxWVrBJ3jvAF-23">
          <mxGeometry y="90" width="210" height="8" as="geometry" />
        </mxCell>
        <mxCell id="Hg_WbvtOmxWVrBJ3jvAF-27" value="Reportes" style="swimlane;fontStyle=2;align=center;verticalAlign=top;childLayout=stackLayout;horizontal=1;startSize=30;horizontalStack=0;resizeParent=1;resizeLast=0;collapsible=1;marginBottom=0;rounded=0;shadow=0;strokeWidth=1;" vertex="1" parent="WIyWlLk6GJQsqaUBKTNV-1">
          <mxGeometry x="450" y="700" width="270" height="160" as="geometry">
            <mxRectangle x="230" y="140" width="160" height="26" as="alternateBounds" />
          </mxGeometry>
        </mxCell>
        <mxCell id="Hg_WbvtOmxWVrBJ3jvAF-28" value="+id: Int, &#xa;+fechaReporte: Date, &#xa;+descripcionReporte: String, &#xa;+reserva: Reserva&#xa;" style="text;align=left;verticalAlign=top;spacingLeft=4;spacingRight=4;overflow=hidden;rotatable=0;points=[[0,0.5],[1,0.5]];portConstraint=eastwest;" vertex="1" parent="Hg_WbvtOmxWVrBJ3jvAF-27">
          <mxGeometry y="30" width="270" height="90" as="geometry" />
        </mxCell>
        <mxCell id="Hg_WbvtOmxWVrBJ3jvAF-29" value="+crearReportes(String descripcionReporte, &#xa;Reserva infoReservas): Boolean" style="text;align=left;verticalAlign=top;spacingLeft=4;spacingRight=4;overflow=hidden;rotatable=0;points=[[0,0.5],[1,0.5]];portConstraint=eastwest;" vertex="1" parent="Hg_WbvtOmxWVrBJ3jvAF-27">
          <mxGeometry y="120" width="270" as="geometry" />
        </mxCell>
        <mxCell id="Hg_WbvtOmxWVrBJ3jvAF-30" value="" style="line;html=1;strokeWidth=1;align=left;verticalAlign=middle;spacingTop=-1;spacingLeft=3;spacingRight=3;rotatable=0;labelPosition=right;points=[];portConstraint=eastwest;" vertex="1" parent="Hg_WbvtOmxWVrBJ3jvAF-27">
          <mxGeometry y="120" width="270" height="8" as="geometry" />
        </mxCell>
        <mxCell id="Hg_WbvtOmxWVrBJ3jvAF-31" value="Recordatorios" style="swimlane;fontStyle=2;align=center;verticalAlign=top;childLayout=stackLayout;horizontal=1;startSize=30;horizontalStack=0;resizeParent=1;resizeLast=0;collapsible=1;marginBottom=0;rounded=0;shadow=0;strokeWidth=1;" vertex="1" parent="WIyWlLk6GJQsqaUBKTNV-1">
          <mxGeometry x="90" y="700" width="290" height="160" as="geometry">
            <mxRectangle x="230" y="140" width="160" height="26" as="alternateBounds" />
          </mxGeometry>
        </mxCell>
        <mxCell id="Hg_WbvtOmxWVrBJ3jvAF-32" value="+id: Int, &#xa;+fecha: Date, &#xa;+reserva: Reserva, &#xa;+usuario: Clientes" style="text;align=left;verticalAlign=top;spacingLeft=4;spacingRight=4;overflow=hidden;rotatable=0;points=[[0,0.5],[1,0.5]];portConstraint=eastwest;" vertex="1" parent="Hg_WbvtOmxWVrBJ3jvAF-31">
          <mxGeometry y="30" width="290" height="80" as="geometry" />
        </mxCell>
        <mxCell id="Hg_WbvtOmxWVrBJ3jvAF-33" value="+crearRecordatorio(String mensajeRecordatorio, &#xa;Reserva infoReserva): Boolean&#xa;&#xa;" style="text;align=left;verticalAlign=top;spacingLeft=4;spacingRight=4;overflow=hidden;rotatable=0;points=[[0,0.5],[1,0.5]];portConstraint=eastwest;" vertex="1" parent="Hg_WbvtOmxWVrBJ3jvAF-31">
          <mxGeometry y="110" width="290" as="geometry" />
        </mxCell>
        <mxCell id="Hg_WbvtOmxWVrBJ3jvAF-34" value="" style="line;html=1;strokeWidth=1;align=left;verticalAlign=middle;spacingTop=-1;spacingLeft=3;spacingRight=3;rotatable=0;labelPosition=right;points=[];portConstraint=eastwest;" vertex="1" parent="Hg_WbvtOmxWVrBJ3jvAF-31">
          <mxGeometry y="110" width="290" height="8" as="geometry" />
        </mxCell>
        <mxCell id="Hg_WbvtOmxWVrBJ3jvAF-35" value="" style="endArrow=block;endSize=10;endFill=0;shadow=0;strokeWidth=1;rounded=0;curved=0;edgeStyle=elbowEdgeStyle;elbow=horizontal;exitX=0.414;exitY=1.002;exitDx=0;exitDy=0;exitPerimeter=0;entryX=0.446;entryY=-0.001;entryDx=0;entryDy=0;entryPerimeter=0;" edge="1" parent="WIyWlLk6GJQsqaUBKTNV-1" source="Hg_WbvtOmxWVrBJ3jvAF-50" target="Hg_WbvtOmxWVrBJ3jvAF-5">
          <mxGeometry width="160" relative="1" as="geometry">
            <mxPoint x="120" y="510" as="sourcePoint" />
            <mxPoint x="110" y="650" as="targetPoint" />
            <Array as="points">
              <mxPoint x="110" y="580" />
            </Array>
          </mxGeometry>
        </mxCell>
        <mxCell id="Hg_WbvtOmxWVrBJ3jvAF-36" value="" style="endArrow=block;endSize=10;endFill=0;shadow=0;strokeWidth=1;rounded=0;curved=0;edgeStyle=elbowEdgeStyle;elbow=vertical;entryX=0.5;entryY=0;entryDx=0;entryDy=0;exitX=0.627;exitY=1.011;exitDx=0;exitDy=0;exitPerimeter=0;" edge="1" parent="WIyWlLk6GJQsqaUBKTNV-1" source="Hg_WbvtOmxWVrBJ3jvAF-50" target="Hg_WbvtOmxWVrBJ3jvAF-8">
          <mxGeometry width="160" relative="1" as="geometry">
            <mxPoint x="154.75" y="586.56" as="sourcePoint" />
            <mxPoint x="332" y="710" as="targetPoint" />
            <Array as="points" />
          </mxGeometry>
        </mxCell>
        <mxCell id="Hg_WbvtOmxWVrBJ3jvAF-37" value="" style="endArrow=open;endFill=1;endSize=12;html=1;rounded=0;exitX=0.75;exitY=1;exitDx=0;exitDy=0;entryX=0.148;entryY=0.01;entryDx=0;entryDy=0;entryPerimeter=0;" edge="1" parent="WIyWlLk6GJQsqaUBKTNV-1" source="Hg_WbvtOmxWVrBJ3jvAF-1" target="Hg_WbvtOmxWVrBJ3jvAF-27">
          <mxGeometry width="160" relative="1" as="geometry">
            <mxPoint x="940" y="254.5" as="sourcePoint" />
            <mxPoint x="1100" y="254.5" as="targetPoint" />
          </mxGeometry>
        </mxCell>
        <mxCell id="Hg_WbvtOmxWVrBJ3jvAF-38" value="" style="endArrow=open;endFill=1;endSize=12;html=1;rounded=0;exitX=1;exitY=0.75;exitDx=0;exitDy=0;entryX=-0.003;entryY=0.554;entryDx=0;entryDy=0;entryPerimeter=0;" edge="1" parent="WIyWlLk6GJQsqaUBKTNV-1" target="Hg_WbvtOmxWVrBJ3jvAF-20" source="Hg_WbvtOmxWVrBJ3jvAF-1">
          <mxGeometry width="160" relative="1" as="geometry">
            <mxPoint x="570" y="455" as="sourcePoint" />
            <mxPoint x="523" y="890" as="targetPoint" />
          </mxGeometry>
        </mxCell>
        <mxCell id="Hg_WbvtOmxWVrBJ3jvAF-39" value="" style="endArrow=diamondThin;endFill=1;endSize=24;html=1;rounded=0;entryX=1.01;entryY=0.314;entryDx=0;entryDy=0;entryPerimeter=0;" edge="1" parent="WIyWlLk6GJQsqaUBKTNV-1" target="Hg_WbvtOmxWVrBJ3jvAF-20">
          <mxGeometry width="160" relative="1" as="geometry">
            <mxPoint x="1080" y="110" as="sourcePoint" />
            <mxPoint x="1208.1100000000001" y="535.06" as="targetPoint" />
            <Array as="points">
              <mxPoint x="1080" y="424" />
            </Array>
          </mxGeometry>
        </mxCell>
        <mxCell id="Hg_WbvtOmxWVrBJ3jvAF-40" value="" style="endArrow=diamondThin;endFill=1;endSize=24;html=1;rounded=0;exitX=1;exitY=0.5;exitDx=0;exitDy=0;" edge="1" parent="WIyWlLk6GJQsqaUBKTNV-1" source="Hg_WbvtOmxWVrBJ3jvAF-16">
          <mxGeometry width="160" relative="1" as="geometry">
            <mxPoint x="1139.54" y="398.52000000000015" as="sourcePoint" />
            <mxPoint x="1060" y="110" as="targetPoint" />
            <Array as="points">
              <mxPoint x="1060" y="190" />
            </Array>
          </mxGeometry>
        </mxCell>
        <mxCell id="Hg_WbvtOmxWVrBJ3jvAF-41" value="" style="endArrow=diamondThin;endFill=1;endSize=24;html=1;rounded=0;entryX=0.25;entryY=0;entryDx=0;entryDy=0;exitX=-0.008;exitY=0.231;exitDx=0;exitDy=0;exitPerimeter=0;" edge="1" parent="WIyWlLk6GJQsqaUBKTNV-1" source="Hg_WbvtOmxWVrBJ3jvAF-12">
          <mxGeometry width="160" relative="1" as="geometry">
            <mxPoint x="690" y="-80" as="sourcePoint" />
            <mxPoint x="65" y="360" as="targetPoint" />
            <Array as="points">
              <mxPoint x="690" y="-150" />
              <mxPoint x="690" y="320" />
              <mxPoint x="65" y="320" />
            </Array>
          </mxGeometry>
        </mxCell>
        <mxCell id="Hg_WbvtOmxWVrBJ3jvAF-42" value="" style="endArrow=open;endFill=1;endSize=12;html=1;rounded=0;exitX=1.005;exitY=0.608;exitDx=0;exitDy=0;exitPerimeter=0;entryX=0.006;entryY=0.289;entryDx=0;entryDy=0;entryPerimeter=0;" edge="1" parent="WIyWlLk6GJQsqaUBKTNV-1" source="zkfFHV4jXpPFQw0GAbJ--1" target="Hg_WbvtOmxWVrBJ3jvAF-20">
          <mxGeometry width="160" relative="1" as="geometry">
            <mxPoint x="432" y="160" as="sourcePoint" />
            <mxPoint x="630" y="560" as="targetPoint" />
            <Array as="points">
              <mxPoint x="660" y="140" />
              <mxPoint x="660" y="420" />
            </Array>
          </mxGeometry>
        </mxCell>
        <mxCell id="Hg_WbvtOmxWVrBJ3jvAF-43" value="" style="endArrow=diamondThin;endFill=1;endSize=24;html=1;rounded=0;exitX=1;exitY=0.5;exitDx=0;exitDy=0;entryX=1.015;entryY=0.835;entryDx=0;entryDy=0;entryPerimeter=0;" edge="1" parent="WIyWlLk6GJQsqaUBKTNV-1" source="Hg_WbvtOmxWVrBJ3jvAF-24" target="Hg_WbvtOmxWVrBJ3jvAF-20">
          <mxGeometry width="160" relative="1" as="geometry">
            <mxPoint x="1090" y="750" as="sourcePoint" />
            <mxPoint x="990" y="610" as="targetPoint" />
            <Array as="points">
              <mxPoint x="1080" y="700" />
              <mxPoint x="1080" y="497" />
            </Array>
          </mxGeometry>
        </mxCell>
        <mxCell id="Hg_WbvtOmxWVrBJ3jvAF-44" value="" style="endArrow=diamondThin;endFill=1;endSize=24;html=1;rounded=0;exitX=1.001;exitY=0.236;exitDx=0;exitDy=0;exitPerimeter=0;" edge="1" parent="WIyWlLk6GJQsqaUBKTNV-1" source="Hg_WbvtOmxWVrBJ3jvAF-28">
          <mxGeometry width="160" relative="1" as="geometry">
            <mxPoint x="760" y="780" as="sourcePoint" />
            <mxPoint x="780" y="50" as="targetPoint" />
            <Array as="points">
              <mxPoint x="740" y="751" />
              <mxPoint x="740" y="50" />
            </Array>
          </mxGeometry>
        </mxCell>
        <mxCell id="Hg_WbvtOmxWVrBJ3jvAF-45" value="" style="endArrow=diamondThin;endFill=1;endSize=24;html=1;rounded=0;exitX=0.451;exitY=0;exitDx=0;exitDy=0;exitPerimeter=0;" edge="1" parent="WIyWlLk6GJQsqaUBKTNV-1" source="Hg_WbvtOmxWVrBJ3jvAF-31" target="Hg_WbvtOmxWVrBJ3jvAF-12">
          <mxGeometry width="160" relative="1" as="geometry">
            <mxPoint x="220" y="700" as="sourcePoint" />
            <mxPoint x="780" y="60" as="targetPoint" />
            <Array as="points">
              <mxPoint x="220" y="680" />
              <mxPoint x="710" y="680" />
              <mxPoint x="710" y="-100" />
            </Array>
          </mxGeometry>
        </mxCell>
        <mxCell id="Hg_WbvtOmxWVrBJ3jvAF-46" value="" style="endArrow=open;endFill=1;endSize=12;html=1;rounded=0;exitX=0.209;exitY=0.004;exitDx=0;exitDy=0;exitPerimeter=0;" edge="1" parent="WIyWlLk6GJQsqaUBKTNV-1" source="Hg_WbvtOmxWVrBJ3jvAF-31">
          <mxGeometry width="160" relative="1" as="geometry">
            <mxPoint x="150" y="690" as="sourcePoint" />
            <mxPoint x="620" y="-30" as="targetPoint" />
            <Array as="points">
              <mxPoint x="150" y="670" />
              <mxPoint x="620" y="670" />
            </Array>
          </mxGeometry>
        </mxCell>
        <mxCell id="Hg_WbvtOmxWVrBJ3jvAF-49" value="Clientes" style="swimlane;fontStyle=2;align=center;verticalAlign=top;childLayout=stackLayout;horizontal=1;startSize=30;horizontalStack=0;resizeParent=1;resizeLast=0;collapsible=1;marginBottom=0;rounded=0;shadow=0;strokeWidth=1;" vertex="1" parent="WIyWlLk6GJQsqaUBKTNV-1">
          <mxGeometry x="40" y="360" width="170" height="130" as="geometry">
            <mxRectangle x="230" y="140" width="160" height="26" as="alternateBounds" />
          </mxGeometry>
        </mxCell>
        <mxCell id="Hg_WbvtOmxWVrBJ3jvAF-50" value="+telefono: Int" style="text;align=left;verticalAlign=top;spacingLeft=4;spacingRight=4;overflow=hidden;rotatable=0;points=[[0,0.5],[1,0.5]];portConstraint=eastwest;" vertex="1" parent="Hg_WbvtOmxWVrBJ3jvAF-49">
          <mxGeometry y="30" width="170" height="100" as="geometry" />
        </mxCell>
        <mxCell id="Hg_WbvtOmxWVrBJ3jvAF-55" value="" style="endArrow=none;html=1;rounded=0;exitX=0;exitY=0.5;exitDx=0;exitDy=0;entryX=1;entryY=0.5;entryDx=0;entryDy=0;" edge="1" parent="Hg_WbvtOmxWVrBJ3jvAF-49" source="Hg_WbvtOmxWVrBJ3jvAF-50" target="Hg_WbvtOmxWVrBJ3jvAF-50">
          <mxGeometry width="50" height="50" relative="1" as="geometry">
            <mxPoint x="250" y="110" as="sourcePoint" />
            <mxPoint x="300" y="60" as="targetPoint" />
          </mxGeometry>
        </mxCell>
        <mxCell id="KcDdcYYer87LkavccVwh-0" value="1..*" style="resizable=0;align=left;verticalAlign=bottom;labelBackgroundColor=none;fontSize=12;" connectable="0" vertex="1" parent="WIyWlLk6GJQsqaUBKTNV-1">
          <mxGeometry x="390" y="-10" as="geometry" />
        </mxCell>
        <mxCell id="KcDdcYYer87LkavccVwh-2" value="1..*" style="resizable=0;align=left;verticalAlign=bottom;labelBackgroundColor=none;fontSize=12;" connectable="0" vertex="1" parent="WIyWlLk6GJQsqaUBKTNV-1">
          <mxGeometry x="80" y="360" as="geometry" />
        </mxCell>
        <mxCell id="KcDdcYYer87LkavccVwh-3" value="1..*" style="resizable=0;align=left;verticalAlign=bottom;labelBackgroundColor=none;fontSize=12;" connectable="0" vertex="1" parent="WIyWlLk6GJQsqaUBKTNV-1">
          <mxGeometry x="490" y="510" as="geometry" />
        </mxCell>
        <mxCell id="KcDdcYYer87LkavccVwh-5" value="1..*" style="resizable=0;align=left;verticalAlign=bottom;labelBackgroundColor=none;fontSize=12;" connectable="0" vertex="1" parent="WIyWlLk6GJQsqaUBKTNV-1">
          <mxGeometry x="125" y="700" as="geometry" />
        </mxCell>
        <mxCell id="KcDdcYYer87LkavccVwh-6" value="1..*" style="resizable=0;align=left;verticalAlign=bottom;labelBackgroundColor=none;fontSize=12;" connectable="0" vertex="1" parent="WIyWlLk6GJQsqaUBKTNV-1">
          <mxGeometry x="990" y="450" as="geometry" />
        </mxCell>
        <mxCell id="KcDdcYYer87LkavccVwh-7" value="1..*" style="resizable=0;align=left;verticalAlign=bottom;labelBackgroundColor=none;fontSize=12;" connectable="0" vertex="1" parent="WIyWlLk6GJQsqaUBKTNV-1">
          <mxGeometry x="990" y="530" as="geometry" />
        </mxCell>
        <mxCell id="KcDdcYYer87LkavccVwh-8" value="1..*" style="resizable=0;align=left;verticalAlign=bottom;labelBackgroundColor=none;fontSize=12;" connectable="0" vertex="1" parent="WIyWlLk6GJQsqaUBKTNV-1">
          <mxGeometry x="750" y="90" as="geometry" />
        </mxCell>
        <mxCell id="KcDdcYYer87LkavccVwh-9" value="1..*" style="resizable=0;align=left;verticalAlign=bottom;labelBackgroundColor=none;fontSize=12;" connectable="0" vertex="1" parent="WIyWlLk6GJQsqaUBKTNV-1">
          <mxGeometry x="1030" y="130" as="geometry" />
        </mxCell>
        <mxCell id="KcDdcYYer87LkavccVwh-10" value="1..*" style="resizable=0;align=left;verticalAlign=bottom;labelBackgroundColor=none;fontSize=12;" connectable="0" vertex="1" parent="WIyWlLk6GJQsqaUBKTNV-1">
          <mxGeometry x="750" y="-75" as="geometry" />
        </mxCell>
        <mxCell id="KcDdcYYer87LkavccVwh-11" value="1..*" style="resizable=0;align=left;verticalAlign=bottom;labelBackgroundColor=none;fontSize=12;" connectable="0" vertex="1" parent="WIyWlLk6GJQsqaUBKTNV-1">
          <mxGeometry x="580" y="450" as="geometry" />
        </mxCell>
        <mxCell id="KcDdcYYer87LkavccVwh-12" value="1..*" style="resizable=0;align=left;verticalAlign=bottom;labelBackgroundColor=none;fontSize=12;" connectable="0" vertex="1" parent="WIyWlLk6GJQsqaUBKTNV-1">
          <mxGeometry x="550" y="700" as="geometry" />
        </mxCell>
        <mxCell id="KcDdcYYer87LkavccVwh-13" value="1..*" style="resizable=0;align=left;verticalAlign=bottom;labelBackgroundColor=none;fontSize=12;" connectable="0" vertex="1" parent="WIyWlLk6GJQsqaUBKTNV-1">
          <mxGeometry x="405" y="160" as="geometry" />
        </mxCell>
        <mxCell id="KcDdcYYer87LkavccVwh-14" value="1..*" style="resizable=0;align=left;verticalAlign=bottom;labelBackgroundColor=none;fontSize=12;" connectable="0" vertex="1" parent="WIyWlLk6GJQsqaUBKTNV-1">
          <mxGeometry x="190" y="700" as="geometry" />
        </mxCell>
      </root>
    </mxGraphModel>
  </diagram>
</mxfile>
